<svg width="1613" height="402" viewBox="0 0 1613 402" fill="none" xmlns="http://www.w3.org/2000/svg">
<path d="M753.726 75.2668C756.802 31.1912 795.025 -2.04607 839.101 1.02936L1538.4 49.8239C1582.48 52.8993 1615.71 91.1228 1612.64 135.198L1599.27 326.733C1596.2 370.808 1557.97 404.046 1513.9 400.97L814.599 352.176C770.524 349.1 737.286 310.877 740.362 266.801L753.726 75.2668Z" fill="#2A2222"/>
<path d="M195.389 74.5378L193.616 149.69L140.797 151.817L127.326 319.846L52.5283 323.746L52.8828 155.717L0.0634766 158.552L2.19043 74.8923L195.389 74.5378Z" fill="#E4680D"/>
<path d="M300.85 78.4372L281.353 319.846L206.555 323.746V83.4001L300.85 78.4372Z" fill="#E4680D"/>
<path d="M554.312 73.8288L541.55 314.175L448.673 322.682L399.044 194.002L391.246 325.164H311.485L317.866 73.8288L406.489 69.5749L467.816 197.192L470.652 76.6648L554.312 73.8288Z" fill="#E4680D"/>
<path d="M796.607 88.0085L699.122 224.134L694.514 335.09H610.499L612.626 224.843L561.934 93.3259L652.329 81.9822L666.509 158.552L711.529 81.9822L796.607 88.0085Z" fill="#E4680D"/>
<path d="M985.389 74.5378L983.616 149.69L930.797 151.817L917.326 319.846L842.528 323.746L842.883 155.717L790.063 158.552L792.19 74.8923L985.389 74.5378Z" fill="#DE813D"/>
<path d="M1207.12 202.864C1207.12 213.617 1205.88 224.015 1203.4 234.059C1200.92 243.985 1197.32 253.32 1192.59 262.064C1187.98 270.808 1182.31 278.843 1175.57 286.17C1168.96 293.378 1161.45 299.581 1153.06 304.78C1144.79 309.98 1135.75 314.056 1125.94 317.01C1116.14 319.846 1105.74 321.264 1094.75 321.264C1084.11 321.264 1073.95 319.905 1064.26 317.188C1054.69 314.47 1045.71 310.689 1037.32 305.844C1028.93 300.881 1021.31 294.973 1014.46 288.119C1007.72 281.148 1001.93 273.467 997.087 265.077C992.36 256.57 988.638 247.471 985.92 237.781C983.321 228.092 982.021 217.989 982.021 207.472C982.021 197.192 983.262 187.148 985.743 177.341C988.225 167.415 991.77 158.08 996.378 149.336C1001.1 140.592 1006.78 132.556 1013.39 125.23C1020.01 117.904 1027.4 111.582 1035.55 106.265C1043.82 100.947 1052.74 96.8118 1062.31 93.8577C1071.88 90.9035 1081.99 89.4265 1092.62 89.4265C1109.76 89.4265 1125.35 92.0852 1139.42 97.4026C1153.6 102.72 1165.65 110.342 1175.57 120.267C1185.62 130.075 1193.36 142.01 1198.79 156.071C1204.35 170.014 1207.12 185.612 1207.12 202.864ZM1128.43 207.472C1128.43 202.391 1127.66 197.488 1126.12 192.761C1124.7 187.916 1122.58 183.662 1119.74 179.999C1116.91 176.218 1113.36 173.205 1109.11 170.96C1104.97 168.596 1100.19 167.415 1094.75 167.415C1089.2 167.415 1084.23 168.419 1079.86 170.428C1075.49 172.437 1071.71 175.214 1068.52 178.759C1065.44 182.185 1063.08 186.262 1061.43 190.989C1059.77 195.597 1058.95 200.501 1058.95 205.7C1058.95 210.663 1059.65 215.626 1061.07 220.589C1062.49 225.551 1064.62 230.042 1067.45 234.059C1070.29 238.077 1073.78 241.326 1077.91 243.808C1082.17 246.289 1087.07 247.53 1092.62 247.53C1098.18 247.53 1103.14 246.467 1107.51 244.34C1112 242.094 1115.78 239.14 1118.85 235.477C1121.93 231.696 1124.29 227.383 1125.94 222.538C1127.6 217.694 1128.43 212.672 1128.43 207.472Z" fill="#DE813D"/>
<path d="M1404.4 74.5378L1402.63 149.69L1349.81 151.817L1336.34 319.846L1261.54 323.746L1261.89 155.717L1209.07 158.552L1211.2 74.8923L1404.4 74.5378Z" fill="#DE813D"/>
<path d="M1595.65 233.705C1595.65 249.893 1592.81 264.073 1587.14 276.244C1581.59 288.297 1573.9 298.341 1564.1 306.376C1554.41 314.411 1543 320.437 1529.89 324.455C1516.89 328.472 1502.89 330.481 1487.88 330.481C1482.09 330.481 1475.71 329.713 1468.74 328.177C1461.89 326.641 1454.91 324.75 1447.82 322.505C1440.73 320.142 1433.88 317.66 1427.26 315.061C1420.76 312.343 1414.97 309.802 1409.89 307.439L1417.69 234.414C1427.74 240.44 1438.84 245.049 1451.01 248.239C1463.3 251.311 1475.36 252.847 1487.17 252.847C1489.42 252.847 1492.14 252.788 1495.33 252.67C1498.52 252.434 1501.53 251.902 1504.37 251.075C1507.32 250.13 1509.8 248.771 1511.81 246.998C1513.82 245.226 1514.82 242.685 1514.82 239.377C1514.82 237.132 1514.11 235.241 1512.7 233.705C1511.28 232.051 1509.45 230.751 1507.2 229.805C1504.96 228.742 1502.42 227.974 1499.58 227.501C1496.74 226.91 1493.97 226.497 1491.25 226.26C1488.53 226.024 1485.99 225.906 1483.63 225.906C1481.26 225.906 1479.37 225.906 1477.96 225.906C1467.79 225.906 1458.52 224.134 1450.13 220.589C1441.86 217.044 1434.71 212.14 1428.68 205.877C1422.77 199.496 1418.16 191.993 1414.86 183.367C1411.55 174.623 1409.89 165.17 1409.89 155.008C1409.89 141.064 1412.67 128.598 1418.22 117.609C1423.9 106.501 1431.4 97.1072 1440.73 89.4265C1450.19 81.6277 1461 75.6604 1473.17 71.5246C1485.34 67.3889 1497.93 65.321 1510.92 65.321C1516.71 65.321 1522.68 65.5574 1528.83 66.03C1534.97 66.3845 1541.06 67.0935 1547.08 68.157C1553.23 69.2204 1559.19 70.5793 1564.98 72.2336C1570.77 73.8879 1576.27 75.9558 1581.47 78.4372L1574.73 150.399C1566.7 147.681 1558.25 145.436 1549.39 143.664C1540.64 141.773 1532.07 140.828 1523.69 140.828C1522.15 140.828 1520.14 140.887 1517.66 141.005C1515.3 141.005 1512.75 141.182 1510.04 141.537C1507.44 141.773 1504.78 142.187 1502.06 142.778C1499.34 143.368 1496.92 144.196 1494.79 145.259C1492.67 146.204 1490.95 147.504 1489.65 149.158C1488.35 150.813 1487.76 152.762 1487.88 155.008C1488 157.607 1488.94 159.734 1490.72 161.388C1492.61 162.925 1494.97 164.165 1497.81 165.111C1500.76 165.938 1503.95 166.529 1507.38 166.883C1510.92 167.238 1514.41 167.474 1517.84 167.592C1521.26 167.592 1524.45 167.592 1527.41 167.592C1530.36 167.474 1532.78 167.533 1534.67 167.769C1544.13 168.36 1552.64 170.369 1560.2 173.796C1567.76 177.222 1574.14 181.772 1579.34 187.444C1584.66 193.115 1588.68 199.91 1591.39 207.827C1594.23 215.626 1595.65 224.252 1595.65 233.705Z" fill="#DE813D"/>
</svg>
